<svg xmlns="http://www.w3.org/2000/svg" xmlns:xlink="http://www.w3.org/1999/xlink" width="100" height="100" viewBox="0 0 100 100"><defs><path id="a" d="M0 0h100v100H0z"/></defs><clipPath id="b"><use xlink:href="#a" overflow="visible"/></clipPath><path clip-path="url(#b)" fill="#fff" d="M22.222 0S0 0 0 22.222v55.555S0 100 22.222 100h55.555S100 100 100 77.777V22.222S100 0 77.777 0H22.222z"/><defs><path id="c" d="M22.222 0S0 0 0 22.222v10.494h32.717V0H22.222z"/></defs><clipPath id="d"><use xlink:href="#c" overflow="visible"/></clipPath><linearGradient id="e" gradientUnits="userSpaceOnUse" x1=".838" y1="105.451" x2="3.451" y2="105.451" gradientTransform="matrix(13.228 0 0 -13.228 -12.945 1411.313)"><stop offset="0" stop-color="#EF7E3A"/><stop offset="1" stop-color="#E73F31"/></linearGradient><path clip-path="url(#d)" fill="url(#e)" d="M0 0h32.717v32.716H0z"/><defs><path id="f" d="M0 32.716h32.717v34.567H0z"/></defs><clipPath id="g"><use xlink:href="#f" overflow="visible"/></clipPath><linearGradient id="h" gradientUnits="userSpaceOnUse" x1=".838" y1="103.908" x2="3.451" y2="103.908" gradientTransform="matrix(13.228 0 0 -13.228 -12.945 1424.539)"><stop offset="0" stop-color="#FFEC00"/><stop offset="1" stop-color="#F8AF00"/></linearGradient><path clip-path="url(#g)" fill="url(#h)" d="M0 32.716h32.717v34.567H0z"/><defs><path id="i" d="M0 67.283v10.494S0 100 22.222 100h10.495V67.283H0z"/></defs><clipPath id="j"><use xlink:href="#i" overflow="visible"/></clipPath><linearGradient id="k" gradientUnits="userSpaceOnUse" x1=".838" y1="102.365" x2="3.451" y2="102.365" gradientTransform="matrix(13.228 0 0 -13.228 -12.945 1437.773)"><stop offset="0" stop-color="#6DAA24"/><stop offset="1" stop-color="#008035"/></linearGradient><path clip-path="url(#j)" fill="url(#k)" d="M0 67.283h32.717V100H0z"/><defs><path id="l" d="M32.717 0h34.566v32.716H32.717z"/></defs><clipPath id="m"><use xlink:href="#l" overflow="visible"/></clipPath><linearGradient id="n" gradientUnits="userSpaceOnUse" x1="2.451" y1="105.451" x2="5.064" y2="105.451" gradientTransform="matrix(13.228 0 0 -13.228 .289 1411.313)"><stop offset="0" stop-color="#A50F80"/><stop offset="1" stop-color="#811B80"/></linearGradient><path clip-path="url(#m)" fill="url(#n)" d="M32.717 0h34.566v32.716H32.717z"/><defs><path id="o" d="M32.717 32.716h34.566v34.567H32.717z"/></defs><clipPath id="p"><use xlink:href="#o" overflow="visible"/></clipPath><linearGradient id="q" gradientUnits="userSpaceOnUse" x1="2.451" y1="103.908" x2="5.064" y2="103.908" gradientTransform="matrix(13.228 0 0 -13.228 .289 1424.539)"><stop offset="0" stop-color="#AEC900"/><stop offset="1" stop-color="#6DAA24"/></linearGradient><path clip-path="url(#p)" fill="url(#q)" d="M32.717 32.716h34.566v34.567H32.717z"/><defs><path id="r" d="M32.717 67.283h34.566V100H32.717z"/></defs><clipPath id="s"><use xlink:href="#r" overflow="visible"/></clipPath><linearGradient id="t" gradientUnits="userSpaceOnUse" x1="2.451" y1="102.365" x2="5.064" y2="102.365" gradientTransform="matrix(13.228 0 0 -13.228 .289 1437.773)"><stop offset="0" stop-color="#734719"/><stop offset="1" stop-color="#4E2603"/></linearGradient><path clip-path="url(#s)" fill="url(#t)" d="M32.717 67.283h34.566V100H32.717z"/><defs><path id="u" d="M67.283 0v32.716H100V22.222S100 0 77.777 0H67.283z"/></defs><clipPath id="v"><use xlink:href="#u" overflow="visible"/></clipPath><linearGradient id="w" gradientUnits="userSpaceOnUse" x1="4.064" y1="105.451" x2="6.678" y2="105.451" gradientTransform="matrix(13.228 0 0 -13.228 13.516 1411.313)"><stop offset="0" stop-color="#00B9ED"/><stop offset="1" stop-color="#0080C8"/></linearGradient><path clip-path="url(#v)" fill="url(#w)" d="M67.283 0H100v32.716H67.283z"/><defs><path id="x" d="M67.283 32.716H100v34.567H67.283z"/></defs><clipPath id="y"><use xlink:href="#x" overflow="visible"/></clipPath><linearGradient id="z" gradientUnits="userSpaceOnUse" x1="4.064" y1="103.908" x2="6.678" y2="103.908" gradientTransform="matrix(13.228 0 0 -13.228 13.516 1424.539)"><stop offset="0" stop-color="#F49A00"/><stop offset="1" stop-color="#EB6500"/></linearGradient><path clip-path="url(#y)" fill="url(#z)" d="M67.283 32.716H100v34.567H67.283z"/><defs><path id="A" d="M67.283 67.283V100h10.494S100 100 100 77.777V67.283H67.283z"/></defs><clipPath id="B"><use xlink:href="#A" overflow="visible"/></clipPath><linearGradient id="C" gradientUnits="userSpaceOnUse" x1="4.064" y1="102.365" x2="6.678" y2="102.365" gradientTransform="matrix(13.228 0 0 -13.228 13.516 1437.773)"><stop offset="0" stop-color="#D10007"/><stop offset="1" stop-color="#9A0600"/></linearGradient><path clip-path="url(#B)" fill="url(#C)" d="M67.283 67.283H100V100H67.283z"/><defs><path id="D" d="M0 0h100v100H0z"/></defs><clipPath id="E"><use xlink:href="#D" overflow="visible"/></clipPath><path clip-path="url(#E)" fill="#fff" d="M29.963 43.796c2.147-1.468 3.636-3.713 3.636-6.377 0-4.434-3.836-8.02-8.563-8.02-4.728 0-8.553 3.586-8.553 8.02 0 2.663 1.48 4.908 3.627 6.376-1.96 1.087-3.634 2.805-4.85 4.93-1.324 2.323-2.105 5.127-2.105 8.167 0 1.154.132 2.248.34 3.322 3.614.768 7.467 1.248 11.54 1.248 2.025 0 3.997-.12 5.912-.336.45-1.902 1.12-3.69 1.973-5.33.137-.254.264-.52.408-.77.77-1.35 1.674-2.577 2.676-3.67-1.154-3.353-3.325-6.055-6.04-7.56m32.216-1.622c.133-.65.275-1.296.275-1.987 0-1.21-.25-2.355-.615-3.45-1.574-4.754-6.244-8.217-11.836-8.217h-.008c-5.53 0-10.157 3.39-11.783 8.062-.4 1.142-.668 2.338-.668 3.606 0 .725.146 1.408.29 2.09.622 2.95 2.45 5.46 4.993 7.19-.122.07-.232.167-.353.238-.635.375-1.254.78-1.845 1.245-.188.15-.36.325-.546.483-.513.438-1.012.89-1.482 1.395-.052.053-.112.096-.162.15-.062.07-.106.162-.17.232-.928 1.043-1.784 2.174-2.503 3.44h-.003c-.143.25-.274.515-.407.77-.095.18-.162.382-.25.565-.263.54-.513 1.088-.735 1.656-.126.33-.235.665-.348 1-.186.548-.36 1.1-.507 1.67-.04.15-.097.29-.133.442-.063.264-.092.543-.146.81-.095.478-.188.948-.257 1.437-.076.54-.124 1.093-.166 1.647-.02.26-.067.508-.078.773-.02.367-.036.736-.036 1.113 0 1.67.196 3.268.498 4.83 5.26 1.12 10.87 1.818 16.798 1.818h.008c5.932 0 11.543-.698 16.8-1.817.302-1.562.495-3.16.495-4.83 0-.377-.02-.746-.034-1.113-.012-.266-.06-.514-.082-.773-.04-.555-.088-1.107-.166-1.648-.068-.49-.16-.96-.254-1.44-.057-.265-.082-.544-.146-.808-.037-.152-.096-.293-.135-.443-.148-.57-.322-1.122-.506-1.67-.113-.335-.22-.67-.35-1-.22-.567-.47-1.116-.734-1.655-.09-.184-.156-.385-.25-.566-.135-.255-.264-.52-.408-.77v-.003c-.723-1.264-1.58-2.395-2.506-3.438-.065-.07-.106-.163-.173-.233-.047-.055-.105-.098-.16-.15-.467-.504-.967-.957-1.482-1.395-.182-.158-.355-.334-.547-.482-.588-.465-1.203-.87-1.842-1.245-.123-.07-.23-.17-.352-.237 2.568-1.747 4.406-4.297 5.006-7.293m17.707 1.62c2.146-1.467 3.63-3.712 3.63-6.376 0-4.434-3.827-8.02-8.556-8.02-4.722 0-8.56 3.586-8.56 8.02 0 2.663 1.486 4.908 3.64 6.376-2.72 1.506-4.89 4.208-6.046 7.56 1.004 1.093 1.906 2.32 2.678 3.67.143.25.273.517.408.77.85 1.64 1.518 3.428 1.975 5.33 1.912.217 3.885.336 5.906.336 4.075 0 7.93-.48 11.544-1.248.205-1.074.344-2.168.344-3.322 0-3.04-.787-5.844-2.11-8.167-1.215-2.124-2.888-3.842-4.85-4.93"/></svg>