<svg xmlns="http://www.w3.org/2000/svg" xmlns:xlink="http://www.w3.org/1999/xlink" width="100" height="100" viewBox="0 0 100 100"><defs><path id="a" d="M22.222 0S0 0 0 22.223v55.554S0 100 22.222 100h55.555S100 100 100 77.776V22.223S100 0 77.777 0H22.222z"/></defs><clipPath id="b"><use xlink:href="#a" overflow="visible"/></clipPath><linearGradient id="c" gradientUnits="userSpaceOnUse" x1="-.639" y1="101.279" x2="1.974" y2="101.279" gradientTransform="matrix(0 38.268 38.268 0 -3825.75 24.438)"><stop offset="0" stop-color="#F49A00"/><stop offset="1" stop-color="#EB6500"/></linearGradient><path clip-path="url(#b)" fill="url(#c)" d="M0 0h100v100H0z"/><defs><path id="d" d="M0 0h100v100H0z"/></defs><clipPath id="e"><use xlink:href="#d" overflow="visible"/></clipPath><path clip-path="url(#e)" fill="#fff" d="M38.737 36.826c0-2.235-2.02-4.05-4.508-4.05h-.986c-2.487 0-4.508 1.814-4.508 4.05v9.622c0 .574.14 1.114.377 1.61l9.624-6.987v-4.244zM73.898 65.563l.064.044v-.087c-.023.014-.044.028-.064.043"/><path clip-path="url(#e)" fill="#fff" d="M48.416 36.747l-9.677 7.025-8.16 5.927-15.01 10.895c.277 3.208 2.945 5.63 5.73 5.638.937-.003 1.896-.263 2.822-.853l.565-.398L44.87 50.837l4.328-3.035 4.217 3.035L73.897 65.56l.066-.04v.09l1.242.895c1.045.507 2.02.716 2.918.716 3.33-.007 6.03-3.078 6.303-6.593l-36.01-23.88z"/></svg>