<svg xmlns="http://www.w3.org/2000/svg" xmlns:xlink="http://www.w3.org/1999/xlink" width="100" height="100" viewBox="0 0 100 100"><defs><path id="a" d="M22.222 0S0 0 0 22.222v55.555S0 100 22.222 100h55.555S100 100 100 77.777V22.222S100 0 77.777 0H22.222z"/></defs><clipPath id="b"><use xlink:href="#a" overflow="visible"/></clipPath><linearGradient id="c" gradientUnits="userSpaceOnUse" x1="-.639" y1="101.279" x2="1.974" y2="101.279" gradientTransform="matrix(0 38.268 38.268 0 -3825.75 24.438)"><stop offset="0" stop-color="#AEC900"/><stop offset="1" stop-color="#6DAA24"/></linearGradient><path clip-path="url(#b)" fill="url(#c)" d="M0 0h100v100H0z"/><defs><path id="d" d="M0 0h100v100H0z"/></defs><clipPath id="e"><use xlink:href="#d" overflow="visible"/></clipPath><path clip-path="url(#e)" fill="#fff" d="M53.387 56.012c-1.398.973-3.025 1.35-4.61 1.24-3.803 6.914-4.167 15.545-.18 23.006.968 1.81 3.22 2.49 5.03 1.525 1.81-.97 2.494-3.22 1.525-5.03-2.645-4.95-2.52-10.644-.184-15.317-1.198-1.473-1.83-3.403-1.58-5.424M70.035 40.922c-.576 3.828-4.145 6.462-7.973 5.885-3.824-.576-6.46-4.146-5.883-7.972.58-3.825 4.144-6.462 7.974-5.882 3.828.574 6.457 4.144 5.88 7.97m10.984-3.486l-4.67-.84 3.736-2.922c2.188-1.71 2.613-4.8.965-7.03-.808-1.093-1.99-1.81-3.337-2.01-1.29-.195-2.598.108-3.67.853l-3.896 2.708.58-4.71c.334-2.757-1.55-5.235-4.295-5.65-2.74-.415-5.275 1.402-5.762 4.135l-.842 4.67-2.926-3.737c-.8-1.028-1.96-1.702-3.254-1.898-1.344-.204-2.683.127-3.776.937-2.234 1.646-2.738 4.72-1.152 7.002l2.708 3.897-4.708-.58c-2.757-.336-5.243 1.55-5.655 4.294-.413 2.743 1.402 5.277 4.137 5.767l4.67.84-3.737 2.923c-2.187 1.713-2.61 4.8-.964 7.033.81 1.092 1.992 1.805 3.332 2.006.55.084 1.098.06 1.63-.033.726-.126 1.422-.392 2.042-.82l3.895-2.706-.573 4.707c-.143 1.15.123 2.24.656 3.165.742 1.29 2.033 2.248 3.63 2.492 2.747.41 5.278-1.404 5.77-4.137l.84-4.674 2.923 3.736c.807 1.033 1.963 1.707 3.254 1.904 1.342.2 2.684-.133 3.777-.94 2.232-1.642 2.74-4.718 1.156-7l-2.71-3.896 4.708.574c2.757.337 5.24-1.546 5.655-4.29.413-2.744-1.407-5.277-4.137-5.767M35.412 56.7c.735.198 5.89.335 10.18 4.472.124-.44.22-.918.275-1.432 0 0-4.55-21.1-31.078-6.766 0 0 7.83-1.723 13.67 5.943 4.803 6.31 12.832 8.607 16.062 4.436-3.594-4.51-8.557-6.197-9.11-6.652"/></svg>