<svg xmlns="http://www.w3.org/2000/svg" xmlns:xlink="http://www.w3.org/1999/xlink" width="100" height="100" viewBox="0 0 100 100"><defs><path id="a" d="M22.222 0S0 0 0 22.222v55.555S0 100 22.222 100h55.555S100 100 100 77.777V22.222S100 0 77.777 0H22.222z"/></defs><clipPath id="b"><use xlink:href="#a" overflow="visible"/></clipPath><linearGradient id="c" gradientUnits="userSpaceOnUse" x1="-.639" y1="101.279" x2="1.974" y2="101.279" gradientTransform="matrix(0 38.268 38.268 0 -3825.75 24.438)"><stop offset="0" stop-color="#EF7E3A"/><stop offset="1" stop-color="#E73F31"/></linearGradient><path clip-path="url(#b)" fill="url(#c)" d="M0 0h100v100H0z"/><defs><path id="d" d="M0 0h100v100H0z"/></defs><clipPath id="e"><use xlink:href="#d" overflow="visible"/></clipPath><path clip-path="url(#e)" fill="#fff" d="M79.723 46.28c-1.45-2.532-3.44-4.576-5.78-5.87 2.562-1.745 4.325-4.42 4.325-7.59 0-5.28-4.56-9.546-10.186-9.546s-10.19 4.267-10.19 9.547c0 3.17 1.772 5.845 4.33 7.59-3.237 1.792-5.82 5.01-7.194 8.998 1.19 1.304 2.268 2.764 3.184 4.37.172.3.324.617.488.92 1.014 1.95 1.81 4.078 2.348 6.344 2.28.258 4.625.402 7.035.402 4.852 0 9.44-.572 13.74-1.488.248-1.28.406-2.582.406-3.953 0-3.622-.93-6.96-2.507-9.724M55.797 56.63c-.16-.306-.312-.62-.486-.92-.913-1.6-1.99-3.063-3.183-4.368-1.547-1.69-3.3-3.113-5.22-4.18 3.722-2.53 6.285-6.433 6.285-11.052 0-7.68-6.63-13.888-14.82-13.888-8.19 0-14.835 6.21-14.835 13.888 0 4.62 2.576 8.52 6.302 11.053-6.79 3.76-11.616 11.84-12.025 21.373-.02.438-.042.877-.042 1.324 0 1.992.245 3.89.6 5.754 6.254 1.33 12.942 2.164 20 2.164s13.738-.834 19.996-2.164c.362-1.863.59-3.762.59-5.754 0-2.395-.29-4.7-.81-6.88-.54-2.27-1.34-4.396-2.353-6.35"/></svg>