<svg xmlns="http://www.w3.org/2000/svg" xmlns:xlink="http://www.w3.org/1999/xlink" width="100" height="100" viewBox="0 0 100 100"><defs><path id="a" d="M22.222 0S0 0 0 22.222v55.555S0 100 22.222 100h55.556S100 100 100 77.777V22.222S100 0 77.778 0H22.222z"/></defs><clipPath id="b"><use xlink:href="#a" overflow="visible"/></clipPath><linearGradient id="c" gradientUnits="userSpaceOnUse" x1="-.639" y1="101.279" x2="1.974" y2="101.279" gradientTransform="matrix(0 38.268 38.268 0 -3825.75 24.438)"><stop offset="0" stop-color="#6DAA24"/><stop offset="1" stop-color="#008035"/></linearGradient><path clip-path="url(#b)" fill="url(#c)" d="M0 0h100v100H0z"/><path fill="#fff" d="M36 35.666V30L21 20v59.998L36 70v-5.668L26 71V28.998zM64 64.332V70l15 10V20L64 30v5.666L74 29v42zM63.002 64.998H37V35h26.002v29.998zm1.998-35H35V70h30V30z"/></svg>