<svg xmlns="http://www.w3.org/2000/svg" xmlns:xlink="http://www.w3.org/1999/xlink" width="100" height="100" viewBox="0 0 100 100"><defs><path id="a" d="M22.222 0S0 0 0 22.222v55.555S0 100 22.222 100h55.555S100 100 100 77.777V22.222S100 0 77.777 0H22.222z"/></defs><clipPath id="b"><use xlink:href="#a" overflow="visible"/></clipPath><linearGradient id="c" gradientUnits="userSpaceOnUse" x1="-.639" y1="101.279" x2="1.974" y2="101.279" gradientTransform="matrix(0 38.268 38.268 0 -3825.75 24.438)"><stop offset="0" stop-color="#D10007"/><stop offset="1" stop-color="#9A0600"/></linearGradient><path clip-path="url(#b)" fill="url(#c)" d="M0 0h100v100H0z"/><defs><path id="d" d="M0 0h100v100H0z"/></defs><clipPath id="e"><use xlink:href="#d" overflow="visible"/></clipPath><path clip-path="url(#e)" fill="#fff" d="M69.8 55.566c-6.737-14.6-2.388-19.283-2.345-19.332.074-.076.084-.196.027-.286-.066-.092-.178-.127-.28-.086-.097.04-9.478 3.95-8.294 12.613-2.576-2.312-14.59-14.184-7.24-28.14.045-.082.03-.19-.033-.26-.07-.074-.172-.097-.262-.06-.156.07-3.908 1.668-6.896 5.72-2.754 3.728-5.32 10.327-1.866 20.535 1.255 4.802-1.11 8.697-2.38 10.35.31-1.142.703-3.07.638-5.288-.102-3.243-1.274-7.72-6.27-10.62-.08-.044-.178-.04-.255.015-.075.06-.112.15-.085.24.018.086 1.887 8.617-1.394 12.562-2.833 3.4-5.607 9.33-4.104 14.817 1.257 4.592 5.19 8.096 11.69 10.412 1.665.513 3.256.9 5.018 1.23.118.022.228-.044.265-.15.033-.118-.02-.24-.13-.292-3.33-1.44-6.777-4.46-4.216-10.574 2.436-5.277 2-7.998 1.513-9.16 1.257.707 3.756 2.547 3.13 5.78-.015.097.027.196.112.245s.187.038.262-.024c.078-.055 7.59-6.238 4.18-13.814 1.68.967 6.146 4.363 3.51 12.158-.872 3.346 1.513 5.758 1.612 5.86.08.075.203.09.29.03.09-.06.13-.176.085-.28-.075-.21-1.85-5 2.01-7.65-.204 1.23-.528 4.276.855 5.935 1.24 1.496 2.44 3.947 2.078 6.34-.26 1.684-1.256 3.105-2.975 4.22-.098.067-.13.185-.082.294.05.1.17.155.285.118 4.237-1.402 9.8-4.19 12.226-9.502 1.786-3.92 1.557-8.614-.675-13.96"/></svg>