<svg xmlns="http://www.w3.org/2000/svg" xmlns:xlink="http://www.w3.org/1999/xlink" width="200" height="39" viewBox="0 5 200 39" enable-background="new 0 5 200 39"><defs><path id="a" d="M0 5h200v39H0z"/></defs><clipPath id="b"><use xlink:href="#a" overflow="visible"/></clipPath><path clip-path="url(#b)" fill="#fff" d="M3.417 16.567c0-1.195.9-1.95 2.733-1.95.995 0 2.08.157 3.012.44l.094-2.734c-.932-.156-1.99-.284-2.89-.284C2.175 12.04 0 14.177 0 16.88c0 5.405 6.772 3.518 6.772 6.663 0 1.29-1.243 2.076-3.044 2.076-1.18 0-2.39-.22-3.354-.503l-.094 2.86c.963.19 2.112.315 3.262.315 4.13 0 6.708-2.137 6.708-5.06 0-5.188-6.833-3.648-6.833-6.665m22.36 3.143c0 4.21-1.8 5.847-4.44 5.847-.93 0-1.707-.094-2.453-.313v-4.81c0-2.67 1.367-5.626 3.82-5.626 2.113 0 3.074 1.76 3.074 4.902m3.51-.314c0-4.714-2.048-7.355-5.683-7.355-2.39 0-4.162 1.26-5.032 3.24h-.062c.156-.85.187-2.107.187-2.924-1.83-.094-4.068.033-5.807.22v2.075c.9.064 1.957.19 2.703.316V31.08h3.292v-3.072c.807.157 1.49.19 2.36.19 5.123 0 8.044-3.302 8.044-8.802m12.268 1.824c0 2.23-1.522 4.43-3.79 4.43-1.305 0-2.11-.755-2.11-1.917 0-1.35 1.055-2.828 5.9-2.828v.315zm6.025 6.536v-2.073c-.902-.063-1.958-.19-2.703-.316v-8.045c0-3.207-1.304-5.28-6.025-5.28-1.987 0-3.913.44-5.435 1.037l.31 2.86c1.304-.817 3.167-1.257 4.596-1.257 2.424 0 3.232 1.005 3.232 2.955v1.006c-5.56 0-9.1 2.074-9.1 5.657 0 2.485 1.678 3.994 4.318 3.994 2.453 0 4.378-1.383 5.123-3.237l.03.03c-.124.848-.155 1.888-.155 2.89 1.8.093 4.068-.033 5.808-.22m12.3-12.414l.155-3.3c-2.888-.284-4.442 1.666-5.124 3.77h-.062c.187-1.195.31-2.577.31-3.458-1.895-.094-4.13.034-5.87.22v2.074c.9.062 1.957.187 2.702.314v13.01h3.292v-6.35c0-4.68 1.522-6.85 4.596-6.28m20.96 12.63l4.937-15.62H82.33l-2.146 7.387c-.466 1.543-.775 2.797-1.086 4.243h-.03c-.31-1.352-.623-2.513-1.21-4.4l-2.33-7.23h-3.357l-2.296 7.356c-.405 1.35-.78 2.733-1.088 4.273h-.03c-.31-1.412-.747-2.89-1.15-4.368l-2.052-7.262h-3.634l4.752 15.62h3.51l2.33-7.542c.403-1.318.746-2.545 1.057-3.928h.03c.28 1.195.56 2.263.902 3.3l2.67 8.172h3.666zm16.952-9.96H91.24c.28-2.107 1.585-3.488 3.45-3.488 1.956 0 3.168 1.35 3.104 3.487m3.232 2.36c.063-.6.094-1.133.094-1.573 0-3.71-1.897-6.758-6.306-6.758-4.503 0-7.05 3.52-7.05 8.235 0 5.5 2.64 8.015 7.453 8.015 1.895 0 3.79-.348 5.342-1.005l-.312-2.672c-1.272.628-2.92 1.005-4.504 1.005-3.074 0-4.657-1.636-4.564-5.248h9.846zm13.262-5.03l.155-3.3c-2.89-.284-4.443 1.666-5.124 3.77h-.063c.186-1.195.31-2.577.31-3.458-1.895-.094-4.13.034-5.87.22v2.074c.9.062 1.958.187 2.702.314v13.01h3.292v-6.35c0-4.68 1.52-6.85 4.596-6.28m16.773 12.63l-6.148-8.483 5.715-7.135h-4.07l-5 6.695V5.032c-2.02-.094-4.287.032-6.025.22v2.074c.9.063 1.957.19 2.7.314v20.334h3.325v-7.918l5.28 7.918h4.224zm11.83-9.96h-6.554c.277-2.107 1.582-3.488 3.447-3.488 1.957 0 3.17 1.35 3.107 3.487m3.23 2.36c.062-.6.093-1.133.093-1.573 0-3.71-1.895-6.758-6.307-6.758-4.503 0-7.05 3.52-7.05 8.235 0 5.5 2.64 8.015 7.454 8.015 1.896 0 3.79-.348 5.343-1.005l-.31-2.672c-1.273.628-2.918 1.005-4.505 1.005-3.075 0-4.66-1.636-4.564-5.248h9.846zm13.262-5.03l.155-3.3c-2.888-.284-4.44 1.666-5.124 3.77h-.062c.187-1.195.31-2.577.31-3.458-1.893-.094-4.13.034-5.87.22v2.074c.9.062 1.958.187 2.704.314v13.01h3.29v-6.35c0-4.68 1.522-6.85 4.598-6.28m5.273 10.718c0-1.196-.994-2.2-2.206-2.2-1.21 0-2.205 1.003-2.205 2.2 0 1.226.994 2.23 2.204 2.23 1.21 0 2.205-1.005 2.205-2.23m13.76-6.162c0 2.672-1.367 5.626-3.82 5.626-2.112 0-3.074-1.762-3.074-4.904 0-4.21 1.802-5.846 4.44-5.846.81 0 1.616.095 2.455.285v4.84zm5.995 7.856v-2.073c-.9-.063-1.96-.19-2.704-.316V5.032c-2.02-.094-4.254.032-5.993.22v2.074c.9.063 1.958.19 2.702.314v4.59c-.84-.063-1.585-.126-2.33-.126-5 0-8.077 3.456-8.077 8.832 0 4.526 1.897 7.355 5.686 7.355 2.393 0 4.193-1.318 5.032-3.236h.062c-.154.88-.217 2.105-.217 2.923 1.864.093 4.1-.033 5.84-.22m12.268-9.744h-6.554c.28-2.106 1.585-3.487 3.447-3.487 1.956 0 3.17 1.35 3.108 3.487M200 18.8c0-3.71-1.895-6.758-6.304-6.758-4.506 0-7.054 3.52-7.054 8.235 0 5.5 2.64 8.015 7.456 8.015 1.894 0 3.79-.348 5.342-1.005l-.31-2.672c-1.273.628-2.92 1.005-4.506 1.005-3.074 0-4.656-1.636-4.562-5.248h9.846c.063-.6.092-1.133.092-1.572"/><defs><path id="c" d="M0 5h200v39H0z"/></defs><clipPath id="d"><use xlink:href="#c" overflow="visible"/></clipPath><path clip-path="url(#d)" fill="#D8D9D9" d="M199.546 43.875V33.15h-.85v2.78c0 2.21.064 5.56.113 7.135-.41-.73-.85-1.48-1.305-2.194l-4.898-7.72h-1.16v10.725h.848V40.81c0-2.096-.064-5.562-.11-6.897.36.7.77 1.383 1.254 2.146l4.945 7.815h1.16zm-11.272 0v-.7h-4.3V38.68h4.096v-.683h-4.097v-4.162h4.3v-.686h-5.148v10.725h5.15zm-9.43-8.024c0 1.273-1.022 2.194-2.828 2.194-.534 0-.877-.017-1.066-.03v-4.18c.362-.03.69-.048 1.132-.048 1.757 0 2.76.51 2.76 2.065m1.538 8.025l-3.437-4.052c-.282-.333-.66-.748-.974-1.097 2.087 0 3.75-1.017 3.75-3.05 0-1.922-1.507-2.573-3.36-2.573-1.082 0-1.645.017-2.26.047v10.725h.85v-5.16h.047l4.237 5.16h1.146zm-10.69-3.513h-4.508l1.774-4.86c.172-.494.33-.97.472-1.463h.016c.14.524.282.984.47 1.51l1.776 4.812zm2.245 3.513l-4-10.726h-.897l-4.033 10.725h.91l1.02-2.813h5.008l1.003 2.813h.99zm-9.922-7.644c0 1.526-1.13 2.543-3.044 2.56-.396 0-.786-.03-1.116-.08v-4.86c.376-.03.77-.03 1.303-.03 1.914-.003 2.856.825 2.856 2.41m.895-.172c0-1.717-1.255-2.955-3.548-2.955-.863 0-1.648.017-2.354.047v10.726h.848v-4.42c.314.032.66.05 1.02.05 2.215 0 4.034-1.353 4.034-3.448m-8.776 4.813c0-3.35-5.116-2.38-5.116-5.082 0-1.238.91-2.05 2.605-2.05.61 0 1.318.11 1.916.3l.047-.807c-.61-.127-1.21-.207-1.9-.207-2.213 0-3.517 1.24-3.517 2.858 0 3.322 5.103 2.353 5.103 5.1 0 1.653-1.29 2.257-2.78 2.257-.722 0-1.522-.172-2.148-.397l-.048.875c.564.175 1.318.284 2.12.284 2.306 0 3.718-1.286 3.718-3.13M143.58 42.62c-.377 0-.674.303-.674.684s.297.683.674.683c.378 0 .677-.302.677-.683 0-.38-.3-.684-.677-.684m-5.197 1.257V33.15h-.85v2.78c0 2.21.063 5.56.11 7.135-.408-.73-.848-1.48-1.304-2.194l-4.896-7.72h-1.163v10.725h.847V40.81c0-2.096-.062-5.562-.107-6.897.36.7.77 1.383 1.254 2.146l4.944 7.815h1.165zm-11.273 0v-.7h-4.302V38.68h4.097v-.683h-4.097v-4.162h4.302v-.686h-5.15v10.725h5.15zm-9.433-8.024c0 1.273-1.02 2.194-2.826 2.194-.532 0-.877-.017-1.064-.03v-4.18c.36-.03.688-.048 1.13-.048 1.756 0 2.76.51 2.76 2.065m1.54 8.025l-3.438-4.052c-.283-.333-.66-.748-.972-1.097 2.086 0 3.75-1.017 3.75-3.05 0-1.922-1.505-2.573-3.357-2.573-1.084 0-1.65.017-2.26.047v10.725h.848v-5.16h.046l4.237 5.16h1.147zm-9.45 0v-.7h-4.303V38.68h4.098v-.683h-4.097v-4.162h4.303v-.686h-5.15v10.725h5.15zm-8.914-10.726h-.846v10.723h.846V33.15zM96.24 43.874V33.15h-.848v2.78c0 2.21.062 5.56.11 7.135-.407-.73-.85-1.48-1.302-2.194l-4.898-7.72H88.14v10.725h.847V40.81c0-2.096-.062-5.562-.11-6.897.362.7.77 1.383 1.257 2.146l4.944 7.815h1.16zm-12.51-3.513h-4.507l1.773-4.86c.173-.494.33-.97.47-1.463h.017c.142.524.283.984.472 1.51l1.774 4.812zm2.245 3.513L81.973 33.15h-.895l-4.036 10.725h.912l1.02-2.813h5.007l1.007 2.813h.988zm-10.31-3.004c0-3.35-5.12-2.38-5.12-5.082 0-1.238.91-2.05 2.607-2.05.61 0 1.317.11 1.915.3l.048-.807c-.613-.127-1.21-.207-1.9-.207-2.215 0-3.518 1.24-3.518 2.858 0 3.322 5.102 2.353 5.102 5.1 0 1.653-1.288 2.257-2.78 2.257-.72 0-1.522-.172-2.15-.397l-.047.875c.565.175 1.318.284 2.12.284 2.307 0 3.72-1.286 3.72-3.13M65.112 42.62c-.374 0-.674.303-.674.684s.3.683.675.683c.378 0 .676-.302.676-.683 0-.38-.298-.684-.675-.684m-5.2 1.257V33.15h-.846v2.78c0 2.21.062 5.56.11 7.135-.41-.73-.85-1.48-1.303-2.194l-4.896-7.72h-1.16v10.725h.846V40.81c0-2.096-.063-5.562-.11-6.897.36.7.77 1.383 1.255 2.146l4.946 7.815h1.16zm-11.27 0v-.7H44.34V38.68h4.098v-.683h-4.098v-4.162h4.303v-.686h-5.148v10.725h5.15zM41.45 33.85v-.7h-7.567v.7h3.36v10.023h.847V33.85h3.36zm-9.51 6.512h-4.506l1.773-4.86c.173-.494.33-.97.47-1.463h.017c.142.524.282.984.47 1.51l1.775 4.812zm2.245 3.513L30.182 33.15h-.894l-4.035 10.725h.91l1.02-2.813h5.01l1.004 2.813h.988zm-11.41-8.024c0 1.273-1.022 2.194-2.827 2.194-.533 0-.88-.017-1.067-.03v-4.18c.36-.03.69-.048 1.13-.048 1.758 0 2.764.51 2.764 2.065m1.538 8.025l-3.438-4.052c-.283-.333-.66-.748-.974-1.097 2.088 0 3.752-1.017 3.752-3.05 0-1.922-1.508-2.573-3.36-2.573-1.083 0-1.647.017-2.26.047v10.725h.848v-5.16h.046l4.238 5.16h1.148zm-9.45 0v-.7H10.56V38.68h4.098v-.683H10.56v-4.162h4.302v-.686h-5.15v10.725h5.15zm-9.008-3.067c0 1.366-.864 2.413-2.968 2.413-.77 0-1.27-.046-1.585-.095V38.66c.284-.016.88-.016 1.084-.016 1.916.002 3.47.448 3.47 2.164m-.266-5.05c0 1.413-1.113 2.222-3.186 2.222-.44 0-.738 0-1.1-.017v-4.13c.502-.018 1.116-.032 1.68-.032 2.102 0 2.606.845 2.606 1.958m1.13 5.002c0-1.16-.676-2.304-2.386-2.526v-.017c1.27-.35 2.118-1.397 2.118-2.602 0-1.497-.987-2.496-3.312-2.496-1.255 0-2.04.03-2.684.03v10.725c.722.017 1.695.047 2.323.047 3.423 0 3.94-2.145 3.94-3.162"/></svg>