<svg xmlns="http://www.w3.org/2000/svg" xmlns:xlink="http://www.w3.org/1999/xlink" width="100" height="100" viewBox="0 0 100 100"><defs><path id="a" d="M22.222 0S0 0 0 22.222v55.554S0 100 22.222 100h55.554S100 100 100 77.775V22.222S100 0 77.776 0H22.222z"/></defs><clipPath id="b"><use xlink:href="#a" overflow="visible"/></clipPath><linearGradient id="c" gradientUnits="userSpaceOnUse" x1="-.639" y1="101.279" x2="1.974" y2="101.279" gradientTransform="matrix(0 38.268 38.268 0 -3825.75 24.438)"><stop offset="0" stop-color="#00B9ED"/><stop offset="1" stop-color="#0080C8"/></linearGradient><path clip-path="url(#b)" fill="url(#c)" d="M0 0h100v100H0z"/><defs><path id="d" d="M0 0h100v100H0z"/></defs><clipPath id="e"><use xlink:href="#d" overflow="visible"/></clipPath><path clip-path="url(#e)" fill="#fff" d="M79.443 50c0-16.264-13.18-29.444-29.444-29.444-9.506 0-17.933 4.524-23.318 11.512 3.96-2.552 8.665-4.056 13.73-4.056 12.863 0 23.464 9.58 25.12 21.988h-4.766L72.49 61.724 84.213 50h-4.77zM20.554 50C20.557 66.26 33.74 79.443 50 79.443c9.506 0 17.933-4.523 23.316-11.51-3.96 2.554-8.665 4.05-13.73 4.05-12.86 0-23.462-9.576-25.12-21.983h4.765L27.51 38.276 15.787 50h4.768z"/></svg>