<svg xmlns="http://www.w3.org/2000/svg" xmlns:xlink="http://www.w3.org/1999/xlink" width="100" height="100" viewBox="0 0 100 100"><defs><path id="a" d="M22.22 0S0 0 0 22.22v55.55S0 100 22.22 100H77.77S100 100 100 77.77V22.22S100 0 77.768 0H22.22z"/></defs><clipPath id="b"><use xlink:href="#a" overflow="visible"/></clipPath><linearGradient id="c" gradientUnits="userSpaceOnUse" x1=".237" y1="101.808" x2="2.85" y2="101.808" gradientTransform="matrix(41.3 34.654 34.654 -41.3 -3541.875 4201.133)"><stop offset="0" stop-color="#FFEC00"/><stop offset=".047" stop-color="#F0D313"/><stop offset=".103" stop-color="#E3BD24"/><stop offset=".164" stop-color="#DAAD30"/><stop offset=".234" stop-color="#D5A437"/><stop offset=".33" stop-color="#D3A139"/><stop offset=".353" stop-color="#D8A83D"/><stop offset=".479" stop-color="#EDC651"/><stop offset=".586" stop-color="#FAD95D"/><stop offset=".66" stop-color="#FFE061"/><stop offset=".739" stop-color="#FFDE5E"/><stop offset=".806" stop-color="#FED953"/><stop offset=".868" stop-color="#FDD042"/><stop offset=".928" stop-color="#FBC429"/><stop offset=".985" stop-color="#F9B40A"/><stop offset="1" stop-color="#F8AF00"/></linearGradient><path clip-path="url(#b)" fill="url(#c)" d="M41.316-49.237l107.92 90.552-90.55 107.924-107.92-90.555z"/><defs><path id="d" d="M0 0h100v100H0z"/></defs><clipPath id="e"><use xlink:href="#d" overflow="visible"/></clipPath><path clip-path="url(#e)" fill="#fff" d="M59.475 38.377c0-2.934-1.102-5.546-2.85-7.41-1.748-1.86-4.07-2.948-6.623-2.952-2.557.004-4.877 1.092-6.63 2.953-1.735 1.863-2.85 4.476-2.85 7.41 0 1.754-1.416 3.172-3.168 3.172-1.755 0-3.176-1.418-3.176-3.173 0-4.542 1.72-8.7 4.555-11.732 2.83-3.046 6.845-4.978 11.27-4.976 4.413-.003 8.427 1.93 11.25 4.975 2.837 3.03 4.565 7.19 4.567 11.732 0 1.755-1.432 3.173-3.162 3.173-1.754 0-3.183-1.418-3.183-3.173M50.002 69.84c-6.19 0-11.22-5.01-11.22-11.214 0-6.182 5.028-11.197 11.22-11.197 6.182 0 11.213 5.015 11.213 11.196 0 6.205-5.03 11.215-11.213 11.215M69.52 37.61H30.48c-.806 0-1.472.837-1.472 1.88v36.973c0 1.043.666 1.87 1.472 1.87h39.04c.807 0 1.47-.827 1.47-1.87V39.49c0-1.043-.664-1.88-1.47-1.88M54.795 55.93c0-2.67-2.146-4.794-4.797-4.794-2.645 0-4.793 2.125-4.793 4.795 0 1.58.764 2.976 1.95 3.85v4.308h.015c.154 1.406 1.36 2.488 2.828 2.488 1.47 0 2.674-1.082 2.834-2.488h.014v-4.31c1.18-.873 1.95-2.27 1.95-3.847"/></svg>