<svg xmlns="http://www.w3.org/2000/svg" xmlns:xlink="http://www.w3.org/1999/xlink" width="100" height="100" viewBox="0 0 100 100"><defs><path id="a" d="M22.222 0S0 0 0 22.222v55.555S0 100 22.222 100h55.555S100 100 100 77.777V22.222S100 0 77.777 0H22.222z"/></defs><clipPath id="b"><use xlink:href="#a" overflow="visible"/></clipPath><linearGradient id="c" gradientUnits="userSpaceOnUse" x1="-.639" y1="101.279" x2="1.974" y2="101.279" gradientTransform="matrix(0 38.268 38.268 0 -3825.75 24.438)"><stop offset="0" stop-color="#A50F80"/><stop offset="1" stop-color="#811B80"/></linearGradient><path clip-path="url(#b)" fill="url(#c)" d="M0 0h100v100H0z"/><defs><path id="d" d="M0 0h100v100H0z"/></defs><clipPath id="e"><use xlink:href="#d" overflow="visible"/></clipPath><path clip-path="url(#e)" fill="#fff" d="M50 69.963c-11.027 0-19.965-8.936-19.965-19.965 0-11.024 8.938-19.96 19.965-19.96 11.028 0 19.963 8.936 19.963 19.96 0 11.03-8.936 19.965-19.963 19.965m29.44-19.965c-6.696-4.186-7.83-8.107-4.026-14.854-7.748.005-10.564-2.808-10.555-10.562-6.753 3.805-10.673 2.677-14.86-4.024-4.188 6.7-8.114 7.83-14.86 4.024.01 7.755-2.81 10.567-10.56 10.562 3.806 6.747 2.674 10.67-4.023 14.854 6.697 4.19 7.83 8.112 4.024 14.86 7.75-.008 10.568 2.81 10.56 10.562 6.746-3.81 10.673-2.678 14.86 4.023 4.187-6.7 8.107-7.832 14.86-4.023-.01-7.754 2.806-10.57 10.554-10.562-3.803-6.75-2.67-10.67 4.027-14.86M67.365 49.998c0 9.592-7.777 17.366-17.366 17.366-9.59 0-17.365-7.773-17.365-17.366 0-9.588 7.774-17.36 17.364-17.36 9.588 0 17.365 7.772 17.365 17.36"/></svg>