<svg xmlns="http://www.w3.org/2000/svg" xmlns:xlink="http://www.w3.org/1999/xlink" width="100" height="100" viewBox="0 0 100 100"><defs><path id="a" d="M22.222 0S0 0 0 22.222v55.555S0 100 22.222 100h55.555S100 100 100 77.777V22.222S100 0 77.777 0H22.222z"/></defs><clipPath id="b"><use xlink:href="#a" overflow="visible"/></clipPath><linearGradient id="c" gradientUnits="userSpaceOnUse" x1="-.639" y1="101.279" x2="1.974" y2="101.279" gradientTransform="matrix(0 38.268 38.268 0 -3825.75 24.438)"><stop offset="0" stop-color="#FFEC00"/><stop offset="1" stop-color="#F8AF00"/></linearGradient><path clip-path="url(#b)" fill="url(#c)" d="M0 0h100v100H0z"/><defs><path id="d" d="M0 0h100v100H0z"/></defs><clipPath id="e"><use xlink:href="#d" overflow="visible"/></clipPath><path clip-path="url(#e)" fill="#fff" d="M65.498 30.66c.732 2.043-.332 4.297-2.377 5.03l-23.59 8.45c-2.045.733-4.295-.33-5.026-2.375-.735-2.042.33-4.295 2.372-5.027l23.595-8.452c2.048-.733 4.292.332 5.028 2.373M65.498 41.196c.732 2.044-.332 4.295-2.377 5.024L39.53 54.676c-2.043.734-4.293-.33-5.024-2.377-.735-2.043.33-4.293 2.372-5.025l23.595-8.452c2.042-.733 4.292.33 5.028 2.373M60.537 20.914c.723 2.023-.332 4.25-2.354 4.98l-13.74 4.922c-2.025.727-4.255-.33-4.98-2.354-.725-2.023.328-4.25 2.353-4.974l13.744-4.925c2.022-.725 4.25.33 4.977 2.35M62.293 53.62c1.342-.024 2.424-1.12 2.424-2.468 0-1.362-1.107-2.466-2.47-2.466-.093 0-9.44.15-9.44 13.333 0 .206.033.4.082.593h-3.594c-.162-2.93-1.142-5.11-2.917-6.484-2.415-1.87-5.245-1.35-5.557-1.282-1.313.27-2.145 1.545-1.895 2.867.25 1.318 1.535 2.19 2.857 1.97.01-.003.953-.153 1.6.362.652.527.89 1.625.97 2.566h-3.537c-1.16 0-2.093.936-2.093 2.094v3.322c0 .122.014.243.03.358.292 3.137 2.666 5.785 6.1 7.26v3.334c0 1.482 1.202 2.684 2.685 2.684h6.708c1.482 0 2.686-1.2 2.686-2.684V75.83c3.686-1.438 6.268-4.197 6.584-7.42.02-.123.035-.252.035-.38v-3.323c0-1.158-.934-2.094-2.092-2.094h-3.796c.043-.19.076-.387.076-.594 0-7.926 4.053-8.375 4.553-8.4"/></svg>