<svg xmlns="http://www.w3.org/2000/svg" xmlns:xlink="http://www.w3.org/1999/xlink" width="100" height="100" viewBox="0 0 100 100"><defs><path id="a" d="M22.222 0S0 0 0 22.222v55.555S0 100 22.222 100h55.555S100 100 100 77.777V22.222S100 0 77.777 0H22.222z"/></defs><clipPath id="b"><use xlink:href="#a" overflow="visible"/></clipPath><linearGradient id="c" gradientUnits="userSpaceOnUse" x1="-43.685" y1="-10.462" x2="-41.071" y2="-10.462" gradientTransform="matrix(0 38.268 -38.268 0 -350.346 1671.689)"><stop offset="0" stop-color="#777877"/><stop offset="1" stop-color="#5E5E5E"/></linearGradient><path clip-path="url(#b)" fill="url(#c)" d="M0 0h100v100H0z"/><defs><path id="d" d="M0 0h100v100H0z"/></defs><clipPath id="e"><use xlink:href="#d" overflow="visible"/></clipPath><path clip-path="url(#e)" fill="#fff" d="M56.244 72.45c0 .284-.037.56-.098.823h-12.01c-.058-.265-.097-.54-.097-.822V59.335c0-2.018 1.56-3.654 3.488-3.654h5.23c1.924 0 3.485 1.637 3.485 3.654V72.45zM69.13 49.695l-.66-.478c-1.655 1.09-3.386 2.124-4.995 2.548-2.65.698-6.01.182-8.727.176-8.242-.017-19.123.266-26.035 5.612v12.59c0 3.298 3.052 5.97 6.812 5.97h27.812c3.763 0 6.812-2.672 6.812-5.97v-19.72l-1.02-.728z"/><defs><path id="f" d="M0 0h100v100H0z"/></defs><clipPath id="g"><use xlink:href="#f" overflow="visible"/></clipPath><path clip-path="url(#g)" fill="#fff" d="M68.432 49.504L49.894 35.75l-.833-.014-19.83 13.467c-.18.112-.366.2-.553.294l-.127 8.676c6.986-5.246 17.87-5.366 26.118-5.23 2.713.046 6.062.616 8.723-.046 1.833-.453 3.833-1.688 5.7-2.905l-.658-.488z"/><defs><path id="h" d="M0 0h100v100H0z"/></defs><clipPath id="i"><use xlink:href="#h" overflow="visible"/></clipPath><path clip-path="url(#i)" fill="#fff" d="M70.096 48.122l.055.038v-.076c-.02.012-.033.025-.054.038"/><defs><path id="j" d="M0 0h100v100H0z"/></defs><clipPath id="k"><use xlink:href="#j" overflow="visible"/></clipPath><path clip-path="url(#k)" fill="#fff" d="M48.667 23.89l-8.137 5.906-6.86 4.984-12.62 9.163c.23 2.697 2.474 4.734 4.817 4.74.787 0 1.595-.22 2.373-.718l.476-.335 16.97-11.895 3.64-2.552 3.548 2.552L70.098 48.12c.02-.013.034-.025.055-.038v.076l1.05.75c.876.43 1.694.605 2.45.605 2.803-.005 5.07-2.59 5.3-5.543L48.668 23.89zm.224 11.847h.838l-.413-.296-.424.297z"/></svg>